<?xml version="1.0" encoding="UTF-8"?>
<!DOCTYPE svg PUBLIC "-//W3C//DTD SVG 1.1//EN" "http://www.w3.org/Graphics/SVG/1.1/DTD/svg11.dtd">
<!-- Creator: CorelDRAW X7 -->
<svg xmlns="http://www.w3.org/2000/svg" xml:space="preserve" width="100px" height="100px" version="1.1" style="shape-rendering:geometricPrecision; text-rendering:geometricPrecision; image-rendering:optimizeQuality; fill-rule:evenodd; clip-rule:evenodd" viewBox="0 0 100 100" xmlns:xlink="http://www.w3.org/1999/xlink">
 <defs>
  <style type="text/css">
   <![CDATA[
    .fil0 {fill:white}
    .fil1 {fill:#2FA4FF;fill-rule:nonzero}
   ]]>
  </style>
 </defs>
 <g id="Слой_x0020_1">
  <metadata id="CorelCorpID_0Corel-Layer"/>
  <circle class="fil0" cx="50" cy="50" r="50"/>
  <path class="fil1" d="M21 62l13 0 0 14 32 0 0 -14 13 0 0 -17c0,-1 -1,-2 -1,-3 -1,-1 -2,-1 -3,-1l-50 0c-1,0 -2,0 -3,1 0,1 -1,2 -1,3l0 17zm9 4l-12 0c0,-3 0,-21 0,-21 0,-2 1,-4 2,-5 1,-2 3,-2 5,-2l50 0c2,0 4,0 5,2 1,1 2,3 2,5l0 21 -12 0 0 13 -40 0 0 -13z"/>
  <path class="fil1" d="M39 53l24 0 0 19 -26 0 0 -19 2 0zm20 4l-18 0 0 12 18 0 0 -12z"/>
  <path class="fil1" d="M33 21l35 0 0 13 -36 0 0 -13 1 0zm32 3l-30 0 0 7 30 0 0 -7z"/>
  <polygon class="fil1" points="70,44 76,44 76,49 69,49 69,44 "/>
 </g>
</svg>