<?xml version="1.0" encoding="UTF-8"?>
<!DOCTYPE svg PUBLIC "-//W3C//DTD SVG 1.1//EN" "http://www.w3.org/Graphics/SVG/1.1/DTD/svg11.dtd">
<!-- Creator: CorelDRAW X7 -->
<svg xmlns="http://www.w3.org/2000/svg" xml:space="preserve" width="100px" height="100px" version="1.1" style="shape-rendering:geometricPrecision; text-rendering:geometricPrecision; image-rendering:optimizeQuality; fill-rule:evenodd; clip-rule:evenodd" viewBox="0 0 100 100" xmlns:xlink="http://www.w3.org/1999/xlink">
 <defs>
  <style type="text/css">
   <![CDATA[
    .fil0 {fill:white}
    .fil1 {fill:#2FA4FF;fill-rule:nonzero}
   ]]>
  </style>
 </defs>
 <g id="Слой_x0020_1">
  <metadata id="CorelCorpID_0Corel-Layer"/>
  <g id="_618957568">
   <circle class="fil0" cx="50" cy="50" r="50"/>
   <path class="fil1" d="M46 47l0 -2c0,-2 0,-6 0,-10l0 0c0,-3 0,-6 0,-8 0,-1 0,-3 0,-3l0 0c-1,-1 -1,-2 -3,-2 -2,0 -3,1 -3,2 0,2 0,17 0,29l-3 0c-2,-3 -3,-5 -4,-6 -1,0 -2,0 -3,0 -1,0 -1,1 -1,1 0,0 0,1 0,1 0,1 0,1 0,2 0,0 0,0 0,0 1,0 1,1 1,1 2,2 5,6 9,12 4,5 4,11 4,14l22 0 6 -26 0 -8c0,0 1,-2 -2,-2 -2,0 -3,0 -3,0l0 7 -3 0 0 -8c0,0 0,-2 -3,-2 -1,0 -2,0 -2,0l0 7 -4 0 0 -7c0,0 1,-2 -2,-2 -2,0 -3,0 -3,-1l0 11 -3 0zm3 -20c0,2 0,4 0,7 1,0 2,0 3,0 3,0 4,1 5,2 1,0 2,0 3,0 4,0 5,2 6,3 0,0 1,0 3,0 6,0 6,5 6,5l0 8 -1 1 -6 27 -1 1 -26 0 -1 -2c0,0 1,-7 -4,-14 -3,-6 -6,-9 -8,-11 0,0 -1,0 -1,-1 0,0 0,0 -1,-1 0,-1 -1,-2 -1,-3 1,-1 1,-3 2,-4 1,0 1,0 1,0 2,-1 4,-2 6,0 1,0 2,1 3,2 0,-10 0,-23 0,-23l0 -1c0,0 1,-4 6,-4 4,0 5,3 6,4l0 0c0,1 0,2 0,4z"/>
  </g>
 </g>
</svg>