<?xml version="1.0" encoding="UTF-8"?>
<!DOCTYPE svg PUBLIC "-//W3C//DTD SVG 1.1//EN" "http://www.w3.org/Graphics/SVG/1.1/DTD/svg11.dtd">
<!-- Creator: CorelDRAW X7 -->
<svg xmlns="http://www.w3.org/2000/svg" xml:space="preserve" width="100px" height="100px" version="1.1" style="shape-rendering:geometricPrecision; text-rendering:geometricPrecision; image-rendering:optimizeQuality; fill-rule:evenodd; clip-rule:evenodd" viewBox="0 0 100 100" xmlns:xlink="http://www.w3.org/1999/xlink">
 <defs>
  <style type="text/css">
   <![CDATA[
    .fil0 {fill:white}
    .fil1 {fill:#2FA4FF;fill-rule:nonzero}
   ]]>
  </style>
 </defs>
 <g id="Слой_x0020_1">
  <metadata id="CorelCorpID_0Corel-Layer"/>
  <g id="_615938352">
   <circle class="fil0" cx="50" cy="50" r="50"/>
   <path class="fil1" d="M74 66c0,-1 0,-2 -1,-3 -1,0 -2,-1 -3,-1l0 9c1,0 2,-1 3,-1 1,-1 1,-2 1,-4zm-7 -6c-3,-1 -5,-2 -6,-3 -1,-1 -2,-3 -2,-5 0,-3 1,-4 2,-6 2,-1 3,-2 6,-2l0 -5 4 0 0 5c2,0 4,1 6,3 1,1 2,3 2,6l-5 0c0,-2 -1,-3 -1,-4 -1,-1 -2,-2 -2,-2l-1 11c3,0 5,2 7,3 1,1 2,3 2,5 0,3 -1,4 -2,6 -2,1 -4,2 -7,2l0 4 -4 0 0 -4c-2,0 -5,-1 -6,-2 -2,-2 -2,-4 -2,-7l4 0c0,2 1,4 2,5 1,0 1,1 2,1l1 -11zm0 -13c-1,0 -1,1 -2,1 -1,1 -1,2 -1,4 0,1 0,2 1,3 1,0 1,1 2,1l0 -9z"/>
   <path class="fil1" d="M55 72c-2,1 -3,1 -4,1 -1,0 -2,0 -3,0 -7,0 -13,-3 -18,-7 -5,-5 -7,-11 -7,-18 0,-7 2,-13 7,-18 5,-5 11,-7 18,-7 4,0 8,1 11,2 4,2 7,5 10,8l-3 2c-2,-3 -5,-5 -8,-7 -3,-1 -6,-2 -10,-2 -6,0 -12,2 -16,6 -4,4 -6,10 -6,16 0,6 2,12 6,16 4,4 10,6 16,6 1,0 2,0 3,0 1,0 2,0 3,-1l1 3z"/>
   <path class="fil1" d="M49 48c1,0 0,1 -1,1 -1,1 -1,0 -2,-1l-4 -17c0,-1 0,-1 1,-2 1,0 2,1 2,2l4 17z"/>
   <path class="fil1" d="M47 47c0,-1 1,-1 2,0 1,0 1,1 0,2l-7 8c-1,1 -2,1 -3,0 0,-1 0,-2 0,-2l8 -8z"/>
  </g>
 </g>
</svg>