<?xml version="1.0" standalone="no"?>
<!DOCTYPE svg PUBLIC "-//W3C//DTD SVG 1.1//EN" "http://www.w3.org/Graphics/SVG/1.1/DTD/svg11.dtd" >
<svg xmlns="http://www.w3.org/2000/svg">
<metadata>Generated by IcoMoon</metadata>
<defs>
<font id="printlot_icon" horiz-adv-x="1024">
<font-face units-per-em="1024" ascent="960" descent="-64" />
<missing-glyph horiz-adv-x="1024" />
<glyph unicode="&#x20;" horiz-adv-x="512" d="" />
<glyph unicode="&#xe900;" glyph-name="account" d="M124.319 196.007c96.92-99.689 235.378-163.38 387.681-163.38s290.761 63.69 387.681 163.38c-41.537 110.766-138.458 202.148-257.531 229.839 69.229 41.537 116.304 121.843 116.304 207.686 0 138.458-110.766 246.454-246.454 246.454s-246.454-107.997-246.454-246.454c0-85.844 47.076-166.149 116.304-207.686-119.073-27.692-215.994-119.073-257.531-229.839z" />
<glyph unicode="&#xe901;" glyph-name="adjust" d="M932.487 186.711h-384.148c-5.192 15.576-13.842 31.147-25.955 43.26-19.034 19.034-43.26 29.418-72.678 29.418-27.684 0-53.644-10.384-72.678-29.418-12.113-12.113-20.763-27.684-25.955-43.26h-259.56v-55.373h259.56c3.463-17.305 13.842-34.61 25.955-46.723 19.034-19.034 44.989-31.147 72.678-31.147 29.418 0 53.644 12.113 72.678 31.147 12.113 12.113 22.497 29.418 27.684 46.723h382.419v55.373zM91.513 764.662h65.757c5.192 15.576 13.842 31.147 25.955 43.26 19.034 19.034 43.26 29.418 72.678 29.418 27.684 0 53.644-10.384 72.678-29.418 12.113-12.113 20.763-27.684 25.955-43.26h577.956v-55.373h-577.956c-3.463-17.305-13.842-34.61-25.955-46.723-19.034-19.034-44.989-31.147-72.678-31.147-29.418 0-53.644 12.113-72.678 31.147-12.113 12.113-22.497 29.418-27.684 46.723h-64.023v55.373zM290.508 769.854c-8.65 8.65-20.763 13.842-34.61 13.842s-25.955-5.192-34.61-13.842c-8.65-8.65-13.842-20.763-13.842-34.61s5.192-25.955 13.842-34.61c8.65-8.65 20.763-13.842 34.61-13.842s25.955 5.192 34.61 13.842c8.65 8.65 13.842 20.763 13.842 34.61s-5.192 25.955-13.842 34.61zM932.487 475.684h-103.825c-5.192 15.576-15.576 31.147-27.684 43.26-19.034 19.034-43.26 29.418-72.678 29.418-27.684 0-53.644-10.384-72.678-29.418-12.113-12.113-20.763-27.684-24.226-43.26h-539.883v-55.373h538.154c5.192-17.305 13.842-34.61 25.955-46.723 19.034-19.034 44.989-31.147 72.678-31.147 29.418 0 53.644 12.113 72.678 31.147 13.842 12.113 22.497 29.418 27.684 46.723h103.825v55.373zM693.69 480.876c8.65 8.65 20.763 13.842 34.61 13.842s25.955-5.192 34.61-13.842c8.65-8.65 13.842-20.763 13.842-34.61s-5.192-25.955-13.842-34.61c-8.65-8.65-20.763-13.842-34.61-13.842s-25.955 5.192-34.61 13.842c-8.65 8.65-13.842 20.763-13.842 34.61s5.192 25.955 13.842 34.61zM415.096 191.903c8.65 8.65 20.763 13.842 34.61 13.842s25.955-5.192 34.61-13.842c8.65-8.65 13.842-20.763 13.842-34.61s-5.192-25.955-13.842-34.61c-8.65-8.65-20.763-13.842-34.61-13.842s-25.955 5.192-34.61 13.842c-8.65 8.65-13.842 20.763-13.842 34.61s5.192 25.955 13.842 34.61z" />
<glyph unicode="&#xe902;" glyph-name="logo_text" d="M942.080 512.512v20.48h-87.040v-20.48h33.792v-149.504h19.456v149.504h33.792zM753.664 532.992c-4.096 0-8.192-1.024-11.264-4.096-3.072-2.048-6.144-4.096-8.192-8.192-2.048-3.072-3.072-7.168-3.072-11.264v-122.88c0-4.096 1.024-8.192 3.072-11.264 2.048-4.096 5.12-6.144 8.192-8.192s7.168-4.096 11.264-4.096h56.32c4.096 0 8.192 2.048 11.264 4.096s6.144 4.096 8.192 8.192c2.048 3.072 3.072 7.168 3.072 11.264v122.88c0 4.096-1.024 8.192-3.072 11.264-2.048 4.096-5.12 6.144-8.192 8.192-3.072 3.072-7.168 4.096-11.264 4.096h-56.32zM750.592 512.512h62.464v-129.024h-62.464v129.024zM717.824 363.008v20.48h-65.536v149.504h-18.432v-169.984h83.968zM575.488 503.296h33.792v29.696h-97.28v-29.696h33.792v-140.288h29.696v140.288zM380.928 363.008h29.696v113.664l53.248-113.664h28.672v169.984h-29.696v-100.352l-46.080 100.352h-35.84v-169.984zM361.472 532.992h-28.672v-169.984h28.672v169.984zM236.544 459.264v44.032h47.104v-44.032h-47.104zM206.848 363.008h29.696v66.56h18.432l25.6-66.56h31.744l-25.6 66.56c5.12 0 9.216 1.024 13.312 3.072 4.096 3.072 7.168 6.144 9.216 10.24 3.072 4.096 4.096 8.192 4.096 13.312v49.152c0 5.12-1.024 9.216-4.096 13.312-2.048 4.096-5.12 8.192-9.216 10.24s-9.216 3.072-14.336 4.096h-78.848v-169.984zM111.616 459.264v44.032h47.104v-44.032h-47.104zM81.92 363.008h29.696v66.56h49.152c5.12 0 10.24 1.024 13.312 3.072 4.096 3.072 8.192 6.144 10.24 10.24s4.096 8.192 4.096 13.312v49.152c0 5.12-2.048 9.216-4.096 13.312s-6.144 8.192-10.24 10.24c-3.072 2.048-8.192 3.072-13.312 4.096h-78.848v-169.984z" />
<glyph unicode="&#xe903;" glyph-name="brochure" d="M793.632 723.544v-631.77c0-9.135-7.613-16.745-15.223-16.745-3.044 0-6.088 1.522-7.613 1.522l-92.864 39.581v-74.594c0-9.135-6.088-16.745-15.223-16.745-4.566 0-9.135 3.044-12.179 6.088l-141.577 150.712-257.274-106.565c-7.613-3.044-16.745 0-19.789 7.613-1.522 3.044-1.522 4.566-1.522 6.088v631.77c0 7.613 4.566 12.179 9.135 15.223l263.365 132.442c4.566 1.522 7.613 3.044 12.179 3.044v0 0 0 0h1.522v-1.522h1.522c0 0 1.522 0 3.044 0l263.365-132.442c6.088-3.044 9.135-7.613 9.135-13.701zM492.211 207.471l3.044 621.113-232.919-117.219v-598.278l229.872 94.386zM645.967 81.117v586.1l-117.219 144.621-1.522-604.368 118.741-126.354zM761.664 114.607v598.278l-190.29 95.908 101.996-124.832c3.044-3.044 4.566-7.613 4.566-10.657v-523.683l83.729-35.012z" />
<glyph unicode="&#xe904;" glyph-name="envelope" d="M917.736 170.31h-814.559c-9.256 0-16.969 6.17-16.969 15.428v509.1c0 9.256 7.713 15.428 16.969 15.428h814.559c9.256 0 16.969-6.17 16.969-15.428v-509.1c0-9.256-7.713-15.428-16.969-15.428zM512 412.517c-3.086 0-6.17 0-9.256 1.543l-384.138 249.922v-461.274h783.704v459.731l-381.054-248.379c-3.086-1.543-6.17-1.543-9.256-1.543v0zM160.259 676.324l351.741-228.324 351.741 228.324h-703.483zM859.114 301.442h-266.891c-9.256 0-15.428 7.713-15.428 16.969 0 7.713 6.17 15.428 15.428 15.428h266.891c9.256 0 16.969-7.713 16.969-15.428 0-9.256-7.713-16.969-16.969-16.969zM859.114 242.817h-266.891c-9.256 0-15.428 6.17-15.428 15.428s6.17 16.969 15.428 16.969h266.891c9.256 0 16.969-7.713 16.969-16.969s-7.713-15.428-16.969-15.428z" />
<glyph unicode="&#xe90a;" glyph-name="attach" d="M921.6 512.001l-443.734-448c-42.666-42.666-98.133-64.001-157.867-64.001-55.466 0-110.933 21.333-157.867 64.001-42.666 42.666-64.001 102.401-64.001 157.867s21.333 115.199 68.267 157.867l465.067 465.067c34.134 34.134 76.799 51.2 123.734 51.2s89.6-17.067 123.734-51.2c34.134-34.134 46.934-76.799 46.934-115.199-4.266-42.666-25.599-85.334-59.733-119.467l-452.266-448c-21.333-25.599-51.2-42.666-81.067-46.934-34.134-8.533-64.001 0-93.866 29.867s-34.134 59.733-25.599 93.866c4.266 25.599 25.599 51.2 46.934 76.799l426.667 426.667 51.2-46.934-426.667-430.933c-17.067-12.801-29.867-29.867-34.134-42.666 0-8.533 0-17.067 8.533-29.867 12.801-8.533 25.599-12.801 34.134-8.533 17.067 0 29.867 12.801 46.934 25.599l448 448c25.599 25.599 38.4 51.2 38.4 76.799 4.266 21.333-4.266 42.666-21.333 59.733-21.333 21.333-51.2 34.134-76.799 34.134-29.867 0-55.466-12.801-76.799-34.134l-465.067-465.067c-29.867-29.867-46.934-68.267-46.934-106.667s17.067-76.799 46.934-106.667c29.867-29.867 68.267-46.934 106.667-46.934s81.067 17.067 110.933 46.934l443.734 443.734 46.934-46.934z" />
<glyph unicode="&#xe90b;" glyph-name="banner" d="M75.236 781.246v-475.053h385.713v-235.4h102.101v235.4h385.713v475.053h-873.529zM533.271 100.574h-42.542v205.619h42.542v-205.619zM918.984 337.391h-813.971v42.542h813.971v-42.542zM105.016 751.466h813.971v-341.754h-813.971v341.754zM870.77 714.596c-2.836 7.091-11.344 11.344-18.435 8.508l-341.754-137.552-341.754 137.552c-7.091 2.836-17.016-1.419-19.852-8.508-2.836-8.508 1.419-17.016 8.508-19.852l311.975-124.789-311.975-124.789c-7.091-2.836-11.344-11.344-8.508-19.852 2.836-5.672 8.508-8.508 14.18-8.508 1.419 0 4.255 0 5.672 1.419l341.754 136.135 341.754-136.135c1.419-1.419 2.836-1.419 5.672-1.419 5.672 0 11.344 2.836 12.763 8.508 4.255 8.508 0 17.016-7.091 19.852l-313.394 124.789 313.394 124.789c7.091 2.836 11.344 11.344 7.091 19.852zM192.934 794.009h85.085c8.508 0 14.18 7.091 14.18 15.599s-5.672 14.18-14.18 14.18h-85.085c-8.508 0-14.18-5.672-14.18-14.18s5.672-15.599 14.18-15.599zM745.981 794.009h85.085c8.508 0 14.18 7.091 14.18 15.599s-5.672 14.18-14.18 14.18h-85.085c-8.508 0-14.18-5.672-14.18-14.18s5.672-15.599 14.18-15.599z" />
<glyph unicode="&#xe90c;" glyph-name="bill" d="M656.563 21.039h1.681c3.362 1.681 6.724 1.681 10.086 5.043l149.606 147.925c3.362 3.362 5.043 10.086 5.043 15.129v667.338c0 11.767-8.405 18.491-18.491 18.491h-586.649c-10.086 0-16.81-6.724-16.81-18.491v-816.94c0-11.767 6.724-18.491 16.81-18.491h438.728zM580.917 379.083c10.086 0 18.491 8.405 18.491 16.81 0 10.086-8.405 18.491-18.491 18.491h-139.52c-8.405 0-16.81-8.405-16.81-18.491 0-8.405 8.405-16.81 16.81-16.81h139.52zM644.796 466.491c10.086 0 18.491 6.724 18.491 16.81s-8.405 18.491-18.491 18.491h-267.273c-8.405 0-16.81-8.405-16.81-18.491s8.405-16.81 16.81-16.81h267.273zM683.455 550.538c10.086 0 18.491 8.405 18.491 18.491s-8.405 16.81-18.491 16.81h-344.595c-8.405 0-16.81-6.724-16.81-16.81s8.405-18.491 16.81-18.491h344.595zM638.072 58.021h-401.746c16.81 48.749 57.15 87.409 109.262 100.857 30.258 8.405 62.193 5.043 92.452-6.724-8.405-16.81-13.448-33.62-18.491-50.426-1.681-8.405 3.362-15.129 11.767-18.491 1.681 0 3.362 0 3.362 0v0c6.724 0 13.448 5.043 15.129 11.767 21.853 89.090 92.452 161.369 181.541 183.222 52.107 11.767 105.9 6.724 156.33-11.767v-62.193h-131.115c-10.086 0-18.491-6.724-18.491-16.81v-129.434zM673.369 168.964h87.409l-87.409-85.728v85.728zM787.674 298.394c-52.107 18.491-109.262 21.853-163.050 8.405-73.961-16.81-136.158-63.874-173.136-127.753-36.982 15.129-75.642 18.491-112.624 8.405-42.025-10.086-77.323-33.62-102.538-65.555v716.083h551.352v-539.585zM510.319 636.265c-28.577 0-53.788 25.215-53.788 55.469s25.215 53.788 53.788 53.788c31.939 0 55.469-23.534 55.469-53.788s-23.534-55.469-55.469-55.469zM510.319 715.273c-11.767 0-23.534-10.086-23.534-23.534s11.767-23.534 23.534-23.534c15.129 0 25.215 10.086 25.215 23.534s-10.086 23.534-25.215 23.534z" />
<glyph unicode="&#xe90d;" glyph-name="blank" d="M340.137 719.275h367.321c10.11 0 18.535 8.425 18.535 18.535 0 8.425-8.425 16.85-18.535 16.85h-367.321c-10.11 0-16.85-8.425-16.85-16.85 0-10.11 6.74-18.535 16.85-18.535zM707.453 643.453c10.11 0 18.535 8.425 18.535 18.535 0 8.425-8.425 16.85-18.535 16.85h-367.321c-10.11 0-16.85-8.425-16.85-16.85 0-10.11 6.74-18.535 16.85-18.535h367.321zM822.030 180.095c1.685 1.685 1.685 5.055 1.685 8.425v665.556c0 8.425-8.425 16.85-16.85 16.85h-584.675c-8.425 0-16.85-8.425-16.85-16.85v-813.829c0-10.11 8.425-18.535 16.85-18.535h436.402c0 0 0 0 0 0 1.685 0 1.685 1.685 3.37 1.685 0 0 0 0 0 0 1.685 0 1.685 0 3.37 0 0 0 0 0 1.685 1.685 0 0 0 0 1.685 0 0 0 0 1.685 0 1.685 1.685 0 1.685 0 1.685 1.685l148.277 146.592c0 0 0 0 0 0 1.685 1.685 1.685 3.37 3.37 3.37 0 1.685 0 1.685 0 1.685zM675.438 82.369v87.617h87.617l-87.617-87.617zM240.725 835.537h547.609v-630.17h-129.742c-10.11 0-16.85-8.425-16.85-16.85v-131.427h-401.017v778.447z" />
<glyph unicode="&#xe90e;" glyph-name="book" d="M811.687 61.965h-501.167c-50.794 0-93.124 42.329-93.124 93.124v658.629l25.395-3.386 6.772-18.623 25.395-42.329 30.478 10.158h506.25v-697.573zM252.949 783.24v-628.155c0-32.171 25.395-57.566 57.566-57.566h465.614v628.155l-504.553 15.237-18.623 42.329zM794.753 723.981h-489.316c-49.101 0-88.045 40.636-88.045 89.738 0 47.408 38.943 88.045 88.045 88.045h489.316c8.465 0 16.93-8.465 16.93-18.623 0-8.465-8.465-16.93-16.93-16.93h-489.316c-28.785 0-52.487-23.702-52.487-52.487 0-30.478 23.702-54.18 52.487-54.18h489.316c8.465 0 16.93-6.772 16.93-16.93s-8.465-18.623-16.93-18.623zM794.753 795.095h-501.167c-10.158 0-18.623 8.465-18.623 18.623 0 8.465 8.465 16.93 18.623 16.93h501.167c8.465 0 16.93-8.465 16.93-16.93 0-10.158-8.465-18.623-16.93-18.623zM691.471 412.443h-358.946v154.076h358.946v-154.076zM368.082 448h287.832v82.966h-287.832v-82.966zM669.462 332.867h-314.924c-8.465 0-16.93 6.772-16.93 16.93s8.465 18.623 16.93 18.623h314.924c8.465 0 16.93-8.465 16.93-18.623s-8.465-16.93-16.93-16.93z" />
<glyph unicode="&#xe90f;" glyph-name="booklet" d="M923.102 703.382l-267.84 129.249c0 0-1.558 0-1.558 0s-1.558 0-1.558 1.558c-1.558 0-1.558 0-1.558 0-1.558 0-1.558 0-3.113 0 0 0-1.558 0-1.558 0-1.558 0-1.558 0-1.558 0-1.558-1.558-1.558-1.558-3.113-1.558 0 0 0 0 0 0l-263.169-126.133-263.169 126.133c-4.671 1.558-10.9 1.558-15.571-1.558s-7.787-7.787-7.787-14.016v-624.442c0-6.229 3.113-10.9 9.342-14.016l267.84-129.249c3.113-1.558 4.671-1.558 7.787-1.558 0 0 0 0 1.558 0 0 0 0 0 1.558 0s4.671 0 6.229 1.558l261.611 126.133 261.611-126.133c1.558-1.558 4.671-1.558 7.787-1.558s4.671 1.558 7.787 3.113 7.787 7.787 7.787 12.458v625.998c0 6.229-3.113 10.9-9.342 14.016zM359.393 89.842l-235.14 113.675v588.625l235.14-113.675v-588.625zM395.209 678.466l236.695 113.675v-588.625l-236.695-113.675v588.625zM899.744 89.842l-235.14 113.675v588.625l235.14-113.675v-588.625z" />
<glyph unicode="&#xe911;" glyph-name="business_card" d="M954.442 194.501h-884.884v506.998h884.884v-506.998zM102.623 227.566h818.754v440.867h-818.754v-440.867zM453.743 399.191h-272.393c-9.448 0-15.746 7.873-15.746 17.319 0 7.873 6.298 15.746 15.746 15.746h272.393c9.448 0 17.319-7.873 17.319-15.746 0-9.448-7.873-17.319-17.319-17.319zM453.743 506.257h-272.393c-9.448 0-15.746 6.298-15.746 15.746s6.298 17.319 15.746 17.319h272.393c9.448 0 17.319-7.873 17.319-17.319s-7.873-15.746-17.319-15.746zM453.743 293.697h-272.393c-9.448 0-15.746 6.298-15.746 15.746s6.298 17.319 15.746 17.319h272.393c9.448 0 17.319-7.873 17.319-17.319s-7.873-15.746-17.319-15.746zM746.605 522.004c0 9.448-3.15 17.319-9.448 23.617s-14.171 9.448-23.617 9.448c-9.448 0-17.319-3.15-23.617-9.448h-1.575c-4.723-6.298-7.873-14.171-7.873-23.617s3.15-17.319 9.448-23.617c6.298-6.298 14.171-9.448 23.617-9.448s17.319 3.15 23.617 9.448c6.298 6.298 9.448 14.171 9.448 23.617zM760.776 569.238c11.021-12.596 18.894-28.342 18.894-47.236s-7.873-34.64-18.894-47.236c-12.596-11.021-29.915-18.894-47.236-18.894-18.894 0-34.64 7.873-47.236 18.894-12.596 12.596-18.894 28.342-18.894 47.236 0 17.319 6.298 34.64 17.319 45.661l1.575 1.575c12.596 12.596 28.342 18.894 47.236 18.894 17.319 0 34.64-6.298 47.236-18.894zM842.65 285.824h-258.222c-6.298 0-11.021 3.15-14.171 6.298-3.15 4.723-3.15 9.448-1.575 14.171 17.319 66.13 77.152 111.792 144.857 111.792s127.536-45.661 144.857-111.792c1.575-4.723 0-9.448-3.15-14.171-3.15-3.15-7.873-6.298-12.596-6.298zM608.046 318.889h210.988c-18.894 39.363-59.832 66.13-105.494 66.13s-86.6-26.767-105.494-66.13z" />
<glyph unicode="&#xe912;" glyph-name="calendar" d="M383.534 711.604c-10.010 0-18.351 8.341-18.351 16.682v138.476c0 10.010 8.341 16.682 18.351 16.682 8.341 0 16.682-6.672 16.682-16.682v-138.476c0-8.341-8.341-16.682-16.682-16.682zM653.81 711.604c-10.010 0-16.682 8.341-16.682 16.682v138.476c0 10.010 6.672 16.682 16.682 16.682s16.682-6.672 16.682-16.682v-138.476c0-8.341-6.672-16.682-16.682-16.682zM607.098 780.005h-178.516c-10.010 0-18.351 8.341-18.351 18.351 0 8.341 8.341 16.682 18.351 16.682h178.516c10.010 0 18.351-8.341 18.351-16.682 0-10.010-8.341-18.351-18.351-18.351zM897.394 721.614c0 51.719-41.709 93.429-93.429 93.429h-103.439c-10.010 0-18.351-8.341-18.351-16.682 0-10.010 8.341-18.351 18.351-18.351h103.439c31.699 0 58.391-26.692 58.391-58.391v-106.777h-694.045v106.777c0 31.699 26.692 58.391 60.060 58.391h108.446c10.010 0 16.682 8.341 16.682 18.351 0 8.341-6.672 16.682-16.682 16.682h-108.446c-51.719 0-95.098-41.709-95.098-93.429v-123.459c0-1.669 0-1.669 1.669-3.338-1.669-1.669-1.669-1.669-1.669-3.338v-560.575c0-10.010 8.341-16.682 18.351-16.682h582.261c0 0 0 0 0 0 1.669 0 1.669 0 3.338 0 0 0 0 0 1.669 0 0 0 1.669 0 1.669 0s1.669 1.669 1.669 1.669c0 0 0 0 1.669 0 0 1.669 0 1.669 1.669 1.669 0 0 0 0 0 1.669l146.817 145.148c3.338 5.007 5.007 10.010 5.007 16.682 0 1.669 0 3.338 0 3.338v407.083c0 1.669 0 1.669 0 3.338s0 1.669 0 3.338v123.459zM750.577 74.285v85.088h81.75l-81.75-85.088zM862.356 194.406h-128.466c-10.010 0-18.351-8.341-18.351-16.682v-130.135h-547.228v527.208h694.045v-380.391zM461.95 528.081h107.155v-107.162h-107.155v107.162zM663.82 528.081h107.155v-107.162h-107.155v107.162zM260.075 364.581h107.155v-107.162h-107.155v107.162zM461.95 364.581h107.155v-107.162h-107.155v107.162zM663.82 364.581h107.155v-107.162h-107.155v107.162zM260.075 201.082h107.155v-107.155h-107.155v107.155zM461.95 201.082h107.155v-107.155h-107.155v107.155z" />
<glyph unicode="&#xe913;" glyph-name="catalogue" d="M923.731 42.39c0 0-1.531 0-1.531 0l-456.118 64.284c-7.652 1.531-13.776 9.183-13.776 16.835v15.307l-381.12 120.917v613.771l402.548-127.041c7.652-3.062 12.245-12.245 10.714-19.897 0-1.531 0-3.062 0-4.593v-53.57c29.080-6.121 52.039-32.142 52.039-64.284 0-9.183-7.652-15.307-16.835-15.307s-15.307 6.121-15.307 15.307c0 13.776-7.652 24.49-19.897 30.611v-67.347c29.080-6.121 52.039-33.673 52.039-64.284 0-9.183-7.652-15.307-16.835-15.307s-15.307 6.121-15.307 15.307c0 13.776-7.652 24.49-19.897 30.611v-67.347c29.080-7.652 52.039-33.673 52.039-64.284 0-9.183-7.652-16.835-16.835-16.835s-15.307 7.652-15.307 16.835c0 13.776-7.652 24.49-19.897 30.611v-67.347c29.080-7.652 52.039-33.673 52.039-64.284 0-9.183-7.652-16.835-16.835-16.835s-15.307 7.652-15.307 16.835c0 13.776-7.652 24.49-19.897 30.611v-160.714l350.509 111.734v547.955l-267.855-85.713c-7.652-3.062-16.835 1.531-19.897 10.714-3.062 7.652 1.531 16.835 10.714 19.897l309.18 97.958v-192.856l59.694-7.652c7.652-1.531 12.245-9.183 12.245-16.835v-598.466c0-4.593-1.531-9.183-4.593-12.245-3.062-1.531-6.121-3.062-10.714-3.062zM452.306 330.142c-9.183-6.121-16.835-16.835-16.835-29.080 0-9.183-6.121-16.835-15.307-16.835s-15.307 7.652-15.307 16.835c0 30.611 19.897 55.101 47.449 62.753v67.347c-9.183-6.121-16.835-16.835-16.835-29.080 0-9.183-6.121-16.835-15.307-16.835s-15.307 7.652-15.307 16.835c0 30.611 19.897 55.101 47.449 62.753v67.347c-9.183-6.121-16.835-16.835-16.835-29.080 0-9.183-6.121-15.307-15.307-15.307s-15.307 6.121-15.307 15.307c0 30.611 19.897 55.101 47.449 64.284v65.815c-9.183-6.121-16.835-16.835-16.835-29.080 0-9.183-6.121-15.307-15.307-15.307s-15.307 6.121-15.307 15.307c0 30.611 19.897 56.632 47.449 64.284v50.508l-350.509 111.734v-547.955l350.509-110.203v58.163c0 0 0 1.531 0 3.062v96.427zM484.448 137.289v0l423.976-61.225v566.324l-41.325 6.121v-388.772l-382.651-122.448z" />
<glyph unicode="&#xe914;" glyph-name="circuit" d="M618.010 378.335h37.861c10.6 0 18.174 7.571 18.174 16.658s-7.571 18.174-18.174 18.174h-51.49l-62.093 163.561c18.174 10.6 30.29 30.29 30.29 53.006 0 27.261-18.174 49.977-43.919 57.548 0 1.513 1.513 1.513 1.513 3.029v34.832c0 10.6-9.087 18.174-18.174 18.174s-18.174-7.571-18.174-18.174v-34.832c0-1.513 1.513-1.513 1.513-3.029-25.745-7.571-43.919-30.29-43.919-57.548 0-22.716 12.116-42.403 30.29-53.006l-62.093-163.561h-51.49c-10.6 0-18.174-9.087-18.174-18.174s7.571-16.658 18.174-16.658h37.861l-49.977-130.242c-3.029-9.087 1.513-19.687 10.6-22.716 1.513 0 3.029-1.513 6.058-1.513 6.058 0 13.629 4.542 15.145 12.116l54.519 142.358h51.49v-25.745c0-9.087 9.087-18.174 18.174-18.174s18.174 9.087 18.174 18.174v25.745h51.49l54.519-142.358c1.513-7.571 9.087-12.116 15.145-12.116 3.029 0 4.542 1.513 6.058 1.513 9.087 3.029 13.629 13.629 10.6 22.716l-49.977 130.242zM512 655.481v0c13.629 0 25.745-12.116 25.745-25.745 0-15.145-12.116-25.745-25.745-25.745s-25.745 10.6-25.745 25.745c0 13.629 12.116 25.745 25.745 25.745zM530.174 413.168v0 24.232c0 9.087-9.087 16.658-18.174 16.658s-18.174-7.571-18.174-16.658v-24.232h-37.861l56.035 145.387 56.035-145.387h-37.861zM911.813 129.968h-54.519v664.842c0 0 0 0 0 0 0 1.513 0 1.513 0 1.513 0 10.6-7.571 18.174-16.658 18.174h-639.097v53.006c0 10.6-7.571 18.174-18.174 18.174-9.087 0-16.658-7.571-16.658-18.174v-53.006h-54.519c-9.087 0-16.658-7.571-16.658-18.174 0-9.087 7.571-16.658 16.658-16.658h54.519v-664.842c0 0 0 0 0 0 0-1.513 0-1.513 0-1.513 0-10.6 7.571-18.174 16.658-18.174h639.097v-53.006c0-10.6 7.571-18.174 18.174-18.174 9.087 0 16.658 7.571 16.658 18.174v53.006h54.519c9.087 0 16.658 7.571 16.658 18.174 0 9.087-7.571 16.658-16.658 16.658zM372.671 779.665v0c-7.571-89.352-81.781-157.503-171.132-160.532v160.532h171.132zM201.539 129.968v0 454.332c109.039 1.513 198.394 87.839 207.481 195.364h413.445v-649.697h-620.923z" />
<glyph unicode="&#xe915;" glyph-name="delete" d="M694.539 452.452h57.878v-373.983h-57.878v373.983zM480.835 452.452h62.33v-373.983h-62.33v373.983zM271.583 452.452h57.878v-373.983h-57.878v373.983zM146.922 16.139c0-48.974 40.070-80.139 80.139-80.139h569.878c40.070 0 80.139 31.165 80.139 80.139v578.783h-730.157v-578.783zM342.817 844.243h-289.391v-186.991h917.148v186.991h-289.391v115.757h-338.365z" />
<glyph unicode="&#xe916;" glyph-name="done" d="M171.265 446.672l247.016-258.968 463.486 479.422 39.842-38.514-503.326-520.59-286.856 301.464z" />
<glyph unicode="&#xe918;" glyph-name="estimate" d="M869.152 206.44c0 17.784-5.928 34.084-19.264 45.94-8.892 8.892-20.748 16.3-35.568 23.712l-2.964-139.304c13.336 2.964 25.192 7.408 34.084 16.3 16.3 11.856 23.712 29.64 23.712 53.352v0zM758.004 295.36c-35.568 11.856-62.244 28.156-80.024 45.94-22.228 20.748-32.604 48.904-32.604 81.508 0 34.084 10.372 60.76 31.12 82.988 20.748 20.748 50.388 34.084 85.952 38.532v66.688h56.316v-66.688c37.048-5.928 66.688-20.748 85.952-44.46 20.748-23.712 31.12-57.796 31.12-99.292h-69.652c0 28.156-7.408 51.868-20.748 69.652-7.408 8.892-16.3 16.3-28.156 20.748l-1.48-154.124c42.976-13.336 74.1-29.64 93.364-48.904 20.748-22.228 31.12-48.904 31.12-81.508 0-34.084-10.372-60.76-34.084-82.988-22.228-20.748-53.352-34.084-94.844-38.532v-59.28h-56.316v59.28c-41.496 4.444-74.1 19.264-96.328 42.976s-32.604 54.832-32.604 94.844h69.652c0-29.64 7.408-50.388 22.228-66.688 10.372-10.372 22.228-16.3 38.532-20.748l1.48 160.052zM762.452 492.46c-11.856-2.964-20.748-8.892-28.156-16.3-13.336-11.856-19.264-29.64-19.264-51.868 0-20.748 7.408-38.532 20.748-50.388 5.928-5.928 14.82-10.372 23.712-16.3l2.964 134.86zM578.688 114.56c-14.82-2.964-31.12-7.408-47.424-8.892-17.784-2.964-34.084-2.964-50.388-2.964-103.736 0-197.1 41.496-265.272 109.664s-111.148 161.532-111.148 266.752c0 103.736 42.976 197.1 111.148 265.272s161.532 109.664 265.272 109.664c60.76 0 120.040-14.82 171.908-41.496s97.808-65.208 133.376-114.112l-37.048-26.676c-31.12 42.976-71.136 77.060-117.076 100.772-45.94 22.228-97.808 35.568-151.16 35.568-90.4 0-173.388-37.048-232.668-96.328s-96.328-142.268-96.328-232.668c0-91.88 37.048-174.872 96.328-234.148s142.268-96.328 232.668-96.328c14.82 0 29.64 1.48 44.46 2.964 13.336 1.48 28.156 4.444 41.496 8.892l11.856-45.94zM503.108 483.568c2.964-11.856-4.444-23.712-16.3-28.156-11.856-2.964-25.192 4.444-28.156 17.784l-65.208 251.932c-2.964 11.856 4.444 25.192 17.784 28.156 11.856 2.964 23.712-4.444 26.676-16.3l65.208-253.416zM464.576 493.94c8.892 8.892 23.712 10.372 32.604 1.48s8.892-23.712 1.48-32.604l-112.628-117.076c-7.408-8.892-22.228-8.892-32.604 0-8.892 8.892-8.892 22.228 0 32.604l111.148 115.592z" />
<glyph unicode="&#xe919;" glyph-name="journal" d="M946.858 95.031l-434.858 62.123-434.858-62.123v581.693l67.771 9.883v177.895l371.322-118.597c7.059-1.411 11.294-9.883 9.883-18.355 0-1.411 0-2.824 0-4.235v-448.976c0-8.472-5.648-15.531-14.118-15.531s-15.531 7.059-15.531 15.531v447.565l-321.907 101.655v-504.039l338.851-107.303 336.027 107.303v504.039l-247.077-77.654c-7.059-2.824-15.531 1.411-18.355 9.883-2.824 7.059 2.824 15.531 9.883 18.355l285.198 90.361v-177.895l67.771-9.883v-581.693zM144.913 656.958l-38.121-5.648v-522.394l393.912 56.474-355.793 111.538v360.028zM526.118 185.392l391.088-56.474v522.394l-38.121 5.648v-360.028l-352.969-111.538z" />
<glyph unicode="&#xe91a;" glyph-name="label" d="M425.016 2.59c-1.501 0-2.999 0-4.5 1.501l-170.965 58.488c-2.999 1.501-5.998 4.5-7.499 7.499-2.999 2.999-2.999 7.499-1.501 11.996l163.466 473.906c1.501 2.999 2.999 5.998 7.499 7.499l20.996 11.996-8.997 23.995c-1.501 2.999-1.501 5.998-1.501 10.498l56.987 161.968c1.501 7.499 10.498 11.996 17.997 8.997l277.444-95.981c7.499-1.501 11.996-10.498 8.997-17.997l-55.489-161.968c-1.501-2.999-4.5-5.998-7.499-7.499l-22.494-13.497 10.498-22.494c1.501-2.999 1.501-7.499 0-10.498l-125.974-368.925c-1.501-2.999-4.5-5.998-7.499-7.499l-142.47-70.485c-2.999 0-4.5-1.501-7.499-1.501zM273.546 86.571l151.47-52.49 130.474 64.486 122.975 356.929-11.996 28.495c-4.5 7.499-1.501 14.998 5.998 19.495l28.495 16.496 49.491 142.47-248.949 85.483-49.491-142.47 13.497-31.494c2.999-5.998 0-14.998-7.499-17.997l-28.495-14.998-155.97-454.407zM425.016 2.59c-2.999 0-5.998 1.501-8.997 4.5-4.5 2.999-5.998 10.498-4.5 14.998l35.991 106.479c1.501 4.5 4.5 7.499 7.499 8.997 4.5 1.501 8.997 1.501 11.996 0l106.479-35.991c4.5-1.501 8.997-7.499 8.997-13.497s-2.999-11.996-7.499-13.497l-142.47-70.485c-2.999 0-4.5-1.501-7.499-1.501zM471.509 104.568l-19.495-56.987 77.984 37.492-58.488 19.495zM595.985 341.521c-1.501 0-4.5 0-5.998 1.501l-158.969 55.489c-7.499 1.501-11.996 10.498-8.997 17.997s10.498 11.996 17.997 8.997l160.467-53.988c7.499-2.999 11.996-11.996 8.997-19.495-1.501-5.998-7.499-10.498-13.497-10.498zM670.969 560.477c-1.501 0-2.999 0-4.5 0l-160.467 55.489c-7.499 2.999-11.996 11.996-8.997 19.495s10.498 11.996 17.997 8.997l160.467-55.489c7.499-2.999 11.996-10.498 8.997-17.997-1.501-7.499-7.499-10.498-13.497-10.498zM556.991 287.533c-1.501 0-2.999 0-5.998 1.501l-122.975 41.992c-7.499 2.999-11.996 10.498-8.997 19.495 2.999 7.499 10.498 11.996 17.997 8.997l124.476-43.49c7.499-1.501 11.996-10.498 8.997-17.997-1.501-5.998-7.499-10.498-13.497-10.498zM489.506 540.982c-1.501 0-2.999 0-4.5 0l-37.492 13.497c-8.997 2.999-11.996 11.996-10.498 19.495 2.999 7.499 11.996 11.996 19.495 8.997l38.993-13.497c7.499-2.999 11.996-10.498 8.997-19.495-2.999-5.998-7.499-8.997-14.998-8.997zM589.984 506.488c-1.501 0-2.999 0-4.5 0l-49.491 17.997c-8.997 2.999-11.996 10.498-10.498 17.997 2.999 8.997 11.996 11.996 19.495 10.498l49.491-17.997c7.499-2.999 11.996-10.498 8.997-17.997-1.501-7.499-7.499-10.498-13.497-10.498zM678.465 476.495c-1.501 0-2.999 0-4.5 0l-38.993 13.497c-7.499 2.999-11.996 10.498-8.997 19.495 2.999 7.499 10.498 10.498 19.495 8.997l37.492-13.497c7.499-2.999 11.996-11.996 8.997-19.495-1.501-5.998-7.499-8.997-13.497-8.997zM636.476 666.956c0-13.254-10.741-23.995-23.995-23.995s-23.995 10.741-23.995 23.995c0 13.254 10.741 23.995 23.995 23.995s23.995-10.741 23.995-23.995zM615.48 657.959c-1.501 0-4.5 0-5.998 1.501-7.499 2.999-10.498 10.498-8.997 17.997l70.485 205.459c2.999 7.499 11.996 11.996 19.495 8.997s11.996-10.498 8.997-17.997l-70.485-205.459c-1.501-5.998-7.499-10.498-13.497-10.498z" />
<glyph unicode="&#xe91b;" glyph-name="leaflet" d="M491.78 282.877c-8.425 0-15.165 5.055-16.85 13.48-11.795 48.865-50.546 87.617-101.097 99.412-15.165 5.055-32.015 5.055-47.18 3.37-10.11 33.7-5.055 18.535-1.685 35.385 20.22 1.685 38.755 1.685 58.971-3.37 62.341-15.165 109.522-64.026 124.687-126.372 3.37-10.11-3.37-20.22-11.795-21.905-1.685 0-3.37 0-5.055 0zM744.524 213.791c-8.425 0-15.165 5.055-16.85 13.48-16.85 67.396-67.396 119.632-134.797 136.482-42.125 10.11-85.932 5.055-124.687-13.48-8.425-3.37-18.535 0-23.59 8.425-3.37 8.425 0 20.22 8.425 23.59 45.495 21.905 97.727 28.645 148.277 15.165 79.192-18.535 141.537-80.877 161.753-161.753 1.685-8.425-5.055-18.535-13.48-20.22-1.685-1.685-3.37-1.685-5.055-1.685zM565.916 9.913h-237.579c-10.11 0-18.535 8.425-18.535 18.535v813.829c0 8.425 8.425 16.85 18.535 16.85h416.182c10.11 0 18.535-8.425 18.535-16.85v-635.225c0-5.055-1.685-10.11-5.055-13.48l-178.603-178.603c-3.37-3.37-8.425-5.055-13.48-5.055zM346.877 45.298h212.303l168.493 168.493v609.95h-380.797v-778.447zM565.916 9.913c-1.685 0-3.37 1.685-6.74 1.685-6.74 3.37-10.11 10.11-10.11 16.85v178.603c0 8.425 8.425 16.85 16.85 16.85h178.603c8.425 0 13.48-3.37 16.85-10.11s1.685-15.165-3.37-20.22l-178.603-178.603c-3.37-3.37-8.425-5.055-13.48-5.055zM584.451 188.516v-117.947l117.947 117.947h-117.947zM668.702 699.059h-267.905c-10.11 0-18.535 8.425-18.535 16.85 0 10.11 8.425 18.535 18.535 18.535h267.905c10.11 0 18.535-8.425 18.535-18.535 0-8.425-8.425-16.85-18.535-16.85zM559.18 608.068h-158.383c-10.11 0-18.535 8.425-18.535 18.535s8.425 18.535 18.535 18.535h158.383c8.425 0 16.85-8.425 16.85-18.535s-8.425-18.535-16.85-18.535zM636.687 458.11c-28.645 0-53.916 23.59-53.916 53.916s25.275 53.916 53.916 53.916c30.33 0 55.601-23.59 55.601-53.916s-25.275-53.916-55.601-53.916zM636.687 535.617c-11.795 0-23.59-10.11-23.59-23.59s11.795-23.59 23.59-23.59c13.48 0 23.59 10.11 23.59 23.59s-10.11 23.59-23.59 23.59z" />
<glyph unicode="&#xe91c;" glyph-name="logo" d="M353.177 323.589l95.295-48.97v-173.384l-95.295-54.266zM351.853 429.47h1.324v268.676l95.295-47.646v-168.088l140.293-70.148c1.324-63.531-1.324-88.678-45.001-71.472l-191.911 88.678zM275.088 842.414l104.56 52.942 366.619-162.795c22.499-9.265 63.531-26.471 63.531-123.087l-10.589-248.825c-3.972-47.646-79.413-72.793-144.265-95.295 23.823 15.882 37.060 33.088 37.060 52.942l6.617 264.707c1.324 43.677-18.53 78.089-59.559 101.912l-363.971 157.499z" />
<glyph unicode="&#xe91d;" glyph-name="newspaper" d="M143.518 639.065v0zM143.518 451.41v0zM423.291 360.996v0zM143.518 545.238v0zM276.58 502.588v0zM433.525 453.119v0zM513.705 35.163l-445.248 139.887v685.787l448.662-141.592c10.234-3.41 15.353-13.648 11.943-22.177 0-1.705 1.705-3.41 1.705-5.119v-544.195c0-10.234-8.529-18.767-18.767-18.767s-18.767 8.529-18.767 18.767v540.781l-388.955 122.829v-609.021l409.427-129.653 406.013 129.653v609.021l-298.537-93.828c-8.529-3.41-18.767 1.705-22.177 11.943-1.705 8.529 3.41 18.767 11.943 22.177l344.6 109.181v-685.787l-441.838-139.887zM438.645 586.182c-1.705 0-3.41 0-5.119 0l-274.655 87.004c-8.529 3.41-13.648 13.648-11.943 22.177 3.41 10.234 13.648 15.353 22.177 11.943l274.655-87.004c10.234-3.41 15.353-13.648 11.943-22.177-1.705-8.529-8.529-11.943-17.058-11.943zM261.227 212.58c-1.705 0-3.41 1.705-5.119 1.705l-97.238 30.706c-8.529 3.41-13.648 13.648-11.943 22.177 3.41 10.234 13.648 15.353 22.177 11.943l98.943-30.706c8.529-3.41 13.648-13.648 10.234-22.177-1.705-8.529-8.529-13.648-17.058-13.648zM261.227 273.993c-1.705 0-3.41 0-5.119 0l-97.238 30.706c-8.529 3.41-13.648 13.648-11.943 22.177 3.41 10.234 13.648 15.353 22.177 11.943l98.943-30.706c8.529-3.41 13.648-11.943 10.234-22.177-1.705-6.824-8.529-11.943-17.058-11.943zM261.227 333.7c-1.705 0-3.41 0-5.119 0l-97.238 32.411c-8.529 1.705-13.648 11.943-11.943 22.177 3.41 8.529 13.648 13.648 22.177 10.234l98.943-30.706c8.529-1.705 13.648-11.943 10.234-22.177-1.705-6.824-8.529-11.943-17.058-11.943zM421.586 360.996c-1.705 0-3.41 0-5.119 1.705l-98.943 30.706c-1.705 0-5.119 1.705-6.824 3.41 0 1.705-1.705 3.41-3.41 5.119-1.705 3.41-1.705 8.529 0 13.648 1.705 10.234 11.943 15.353 22.177 11.943l97.238-30.706c8.529-3.41 13.648-13.648 11.943-22.177-3.41-6.824-8.529-11.943-13.648-11.943l-1.705-1.705c0 0-1.705 0-1.705 0zM421.586 422.413c-1.705 0-3.41 0-5.119 0l-98.943 30.706c-8.529 3.41-13.648 13.648-10.234 22.177 1.705 6.824 6.824 11.943 13.648 13.648 3.41 0 5.119 0 8.529-1.705l71.65-22.177 25.587-8.529c1.705 0 3.41-1.705 5.119-3.41h1.705c5.119-5.119 6.824-11.943 5.119-18.767-3.41-8.529-10.234-11.943-17.058-11.943zM421.586 482.12c-1.705 0-3.41 0-5.119 0l-98.943 30.706c-8.529 3.41-13.648 13.648-10.234 23.882 1.705 8.529 11.943 13.648 22.177 10.234l97.238-30.706c8.529-3.41 13.648-11.943 11.943-22.177-3.41-6.824-10.234-11.943-17.058-11.943zM261.227 413.88c-1.705 0-3.41 1.705-5.119 1.705l-97.238 30.706c-3.41 1.705-5.119 1.705-8.529 5.119s-5.119 10.234-3.41 17.058c3.41 10.234 11.943 15.353 22.177 11.943l97.238-30.706c10.234-3.41 15.353-13.648 11.943-22.177-1.705-6.824-6.824-10.234-11.943-11.943-1.705 0-3.41-1.705-5.119-1.705zM261.227 475.296c-1.705 0-3.41 0-5.119 0l-97.238 30.706c-10.234 3.41-15.353 13.648-11.943 22.177 1.705 6.824 5.119 10.234 10.234 11.943 3.41 1.705 8.529 1.705 11.943 0l97.238-30.706c3.41-1.705 6.824-3.41 10.234-6.824 1.705-5.119 3.41-10.234 1.705-15.353-3.41-8.529-10.234-11.943-17.058-11.943zM261.227 535.004c-1.705 0-3.41 0-5.119 0l-97.238 30.706c-10.234 3.41-15.353 13.648-11.943 23.882 3.41 8.529 11.943 13.648 22.177 10.234l97.238-30.706c10.234-1.705 15.353-11.943 11.943-22.177-3.41-6.824-10.234-11.943-17.058-11.943z" />
<glyph unicode="&#xe91e;" glyph-name="other" d="M241.999 493.314c11.329 0 24.545-3.776 32.098-13.217 7.552-7.552 13.217-18.881 13.217-32.098s-5.664-24.545-13.217-32.098c-9.44-9.44-20.769-13.217-32.098-13.217-13.217 0-24.545 3.776-33.986 13.217-7.552 7.552-13.217 18.881-13.217 32.098s5.664 24.545 15.105 32.098c7.552 9.44 18.881 13.217 32.098 13.217zM241.999 532.966c-47.202 0-84.966-37.762-84.966-84.966s37.762-84.966 84.966-84.966c47.202 0 84.966 37.762 84.966 84.966s-37.762 84.966-84.966 84.966zM512 493.314c13.217 0 24.545-3.776 32.098-13.217 9.44-7.552 13.217-18.881 13.217-32.098s-3.776-24.545-13.217-32.098c-7.552-9.44-18.881-13.217-32.098-13.217s-24.545 3.776-32.098 13.217c-9.44 7.552-13.217 18.881-13.217 32.098s3.776 24.545 13.217 32.098c7.552 9.44 18.881 13.217 32.098 13.217zM512 532.966c-47.202 0-84.966-37.762-84.966-84.966s37.762-84.966 84.966-84.966c47.202 0 84.966 37.762 84.966 84.966s-37.762 84.966-84.966 84.966zM782.001 493.314c13.217 0 24.545-3.776 33.986-13.217 7.552-7.552 13.217-18.881 13.217-32.098s-5.664-24.545-15.105-32.098c-7.552-9.44-18.881-13.217-32.098-13.217-11.329 0-22.657 3.776-32.098 13.217-7.552 7.552-13.217 18.881-13.217 32.098s5.664 24.545 13.217 32.098c9.44 9.44 20.769 13.217 32.098 13.217zM782.001 532.966c-47.202 0-84.966-37.762-84.966-84.966s37.762-84.966 84.966-84.966c47.202 0 84.966 37.762 84.966 84.966s-37.762 84.966-84.966 84.966z" />
<glyph unicode="&#xe91f;" glyph-name="postcard" d="M178.772 233.561h668c9.256 0 16.969 7.713 16.969 16.969v356.37c0 7.713-7.713 15.428-16.969 15.428h-668c-7.713 0-15.428-7.713-15.428-15.428v-356.37c0-9.256 7.713-16.969 15.428-16.969zM195.741 491.196c52.452 24.684 112.62 30.854 169.699 16.969 95.649-24.684 169.699-98.735 192.84-194.383 1.543-7.713 9.256-12.342 15.428-12.342 1.543 0 3.086 0 4.629 1.543 9.256 1.543 13.885 10.799 12.342 18.512-4.629 18.512-10.799 35.483-18.512 52.452 30.854 12.342 66.337 15.428 100.278 7.713 57.081-13.885 101.821-58.624 117.247-115.704h-593.949v225.238zM831.343 589.931v-323.972h-9.256c0 1.543 0 3.086 0 3.086-16.969 70.967-70.967 126.503-141.931 143.474-41.653 10.799-84.85 6.17-123.419-9.256-38.567 66.337-104.905 115.704-183.584 135.759-58.624 13.885-121.876 10.799-177.414-12.342v63.251h635.603zM920.822 697.922h-814.559c-9.256 0-16.969-6.17-16.969-15.428v-509.1c0-9.256 7.713-15.428 16.969-15.428h814.559c9.256 0 16.969 6.17 16.969 15.428v509.1c0 9.256-7.713 15.428-16.969 15.428zM905.396 190.365h-783.704v476.703h783.704v-476.703zM737.238 460.342c30.854 0 57.081 26.227 57.081 57.081 0 32.397-26.227 57.081-57.081 57.081-32.397 0-58.624-24.684-58.624-57.081 0-30.854 26.227-57.081 58.624-57.081zM737.238 542.106c13.885 0 24.684-10.799 24.684-24.684s-10.799-24.684-24.684-24.684c-13.885 0-26.227 10.799-26.227 24.684s12.342 24.684 26.227 24.684z" />
<glyph unicode="&#xe920;" glyph-name="print" d="M121.051 278.903h169.097v-182.625h445.061v182.625h169.097l-1.354 239.439c0 14.879-5.41 28.407-16.233 39.23-9.469 9.469-24.351 16.233-39.23 16.233h-670.972c-14.879 0-29.761-6.764-39.23-16.233-9.469-10.823-16.233-24.351-16.233-39.23v-239.439zM246.859 236.968h-167.743c0 33.82 1.354 278.669 0 281.377 0 27.056 10.823 51.404 28.407 68.991s41.935 28.407 68.991 28.407h670.972c27.056 0 51.404-10.823 68.991-28.407s28.407-43.289 28.407-68.991l1.354-281.377h-169.097v-182.625h-530.285v182.625zM363.195 400.652h319.253v-251.616h-340.896v251.616h21.643zM640.513 358.717h-255.672v-166.389h255.672v166.389zM283.381 844.362h478.88v-175.861h-500.524v175.861h21.643zM720.327 801.073h-415.3v-90.634h415.3v90.634zM783.905 530.519h77.109v-66.286h-97.398v66.286z" />
<glyph unicode="&#xe921;" glyph-name="prospect" d="M513.705 35.163l-445.248 139.887v685.787l448.662-141.592c10.234-3.41 15.353-13.648 11.943-23.882-3.41-8.529-13.648-13.648-22.177-10.234l-402.603 126.239v-609.020l409.427-129.653 406.013 129.653v609.020l-298.537-93.828c-8.529-3.41-18.767 1.705-22.177 11.943-1.705 8.529 3.41 18.767 11.943 22.177l344.6 109.181v-685.787l-441.838-139.887zM440.35 473.587c-3.41 0-5.119 1.705-6.824 1.705l-295.127 93.828c-10.234 3.41-15.353 13.648-11.943 22.177 3.41 10.234 13.648 15.353 22.177 11.943l296.832-93.828c8.529-3.41 13.648-13.648 11.943-22.177-3.41-8.529-10.234-13.648-17.058-13.648zM440.35 379.764c-3.41 0-5.119 1.705-6.824 1.705l-295.127 93.828c-10.234 3.41-15.353 13.648-11.943 22.177 3.41 10.234 13.648 15.353 22.177 11.943l296.832-93.828c8.529-3.41 13.648-13.648 11.943-22.177-3.41-8.529-10.234-13.648-17.058-13.648zM440.35 285.936c-3.41 0-5.119 0-6.824 1.705l-295.127 93.828c-10.234 3.41-15.353 11.943-11.943 22.177 3.41 8.529 13.648 15.353 22.177 11.943l296.832-93.828c8.529-3.41 13.648-13.648 11.943-22.177-3.41-8.529-10.234-13.648-17.058-13.648zM512 128.991c-10.234 0-18.767 8.529-18.767 18.767v544.195c0 8.529 8.529 17.058 18.767 17.058s18.767-8.529 18.767-17.058v-544.195c0-10.234-8.529-18.767-18.767-18.767z" />
<glyph unicode="&#xe922;" glyph-name="sticker" d="M936.376 495.152c0 2.774-1.387 6.935-5.548 8.322v1.387c-1.387 1.387-2.774 4.161-4.161 5.548l-477.076 357.807c-2.774 2.774-6.935 2.774-9.707 2.774-1.387 0-2.774 0-4.161 0-203.867-36.058-350.872-213.574-350.872-420.214 0-234.377 191.386-425.763 427.15-425.763s427.15 191.386 427.15 425.763c0 15.255-1.387 29.123-2.774 44.378zM459.3 825.223l421.601-316.201c-12.481-1.387-23.577-2.774-36.058-2.774-189.999 0-350.872 134.524-385.543 318.975zM512 51.361c-220.509 0-400.798 178.902-400.798 399.411 0 189.999 133.137 353.646 318.975 392.478 2.774-24.964 8.322-48.539 15.255-72.117-152.553-30.51-263.5-165.034-263.5-323.136 0-181.677 148.392-330.071 330.071-330.071 160.873 0 296.784 115.108 324.523 271.822 1.387 6.935-2.774 13.868-9.707 13.868-5.548 1.387-12.481-2.774-13.868-9.707-24.964-145.618-152.553-252.406-300.945-252.406-169.195 0-306.494 137.298-306.494 306.494 0 147.005 104.014 271.822 248.245 299.558 61.021-158.101 213.574-267.661 391.091-267.661 22.19 0 44.378 1.387 65.182 5.548 1.387-11.094 2.774-22.19 2.774-34.671 0-220.509-180.289-399.411-400.798-399.411z" />
<glyph unicode="&#xe923;" glyph-name="plus" d="M932 560h-308v308c0 15.463-12.537 28-28 28h-168c-15.463 0-28-12.537-28-28v-308h-308c-15.463 0-28-12.537-28-28v-168c0-15.463 12.537-28 28-28h308v-308c0-15.463 12.537-28 28-28h168c15.463 0 28 12.537 28 28v308h308c15.463 0 28 12.537 28 28v168c0 15.463-12.537 28-28 28z" />
</font>
</defs>
</svg>
